<mxfile host="app.diagrams.net" modified="2024-05-15T17:48:31.408Z" agent="Mozilla/5.0 (X11; Linux x86_64; rv:125.0) Gecko/20100101 Firefox/125.0" etag="ckvYwFoKH2PL0L9LpY8i" version="24.4.1" type="github" pages="2">
  <diagram name="desktop-login" id="c9db0220-8083-56f3-ca83-edcdcd058819">
    <mxGraphModel dx="2713" dy="1700" grid="1" gridSize="10" guides="1" tooltips="1" connect="1" arrows="1" fold="1" page="1" pageScale="1.5" pageWidth="1600" pageHeight="900" background="#ffffff" math="0" shadow="0">
      <root>
        <mxCell id="0" style=";html=1;" />
        <mxCell id="1" style=";html=1;" parent="0" />
      </root>
    </mxGraphModel>
  </diagram>
  <diagram id="p0Vwhbz7SKANTDWl1LRv" name="mobile-login">
    <mxGraphModel dx="2713" dy="1700" grid="1" gridSize="10" guides="1" tooltips="1" connect="1" arrows="1" fold="1" page="1" pageScale="1" pageWidth="900" pageHeight="1600" math="0" shadow="0">
      <root>
        <mxCell id="0" />
        <mxCell id="1" parent="0" />
      </root>
    </mxGraphModel>
  </diagram>
</mxfile>
